<svg width="110" height="44" viewBox="0 0 110 44" fill="none" xmlns="http://www.w3.org/2000/svg">
<path d="M10.068 18.8186C32.2438 2.77771 63.3825 -0.111529 84.2082 2.25121C93.6143 3.31826 102.308 5.69483 105.55 10.8119C108.339 15.2101 106.41 22.0165 99.0804 27.965C89.8443 35.4627 74.8359 38.7152 62.9899 40.6141C51.5548 42.4472 40.5836 42.9701 30.9023 42.2092C21.38 41.4609 12.1874 39.603 6.74188 35.7644C0.955985 31.6857 0.295103 24.0497 10.9024 16.8368C21.3715 9.71881 36.6165 6.73826 48.5586 5.03815C62.0855 3.11292 74.8591 2.5697 86.6333 3.21719C87.9439 3.28958 89.1828 1.87981 87.8743 1.80923C74.9567 1.10414 60.8565 1.82644 45.9404 4.14653C34.4195 5.93787 20.2871 9.18591 10.137 15.7743C0.908527 21.7642 -1.56477 28.7411 1.23895 33.4706C4.76525 39.423 15.5924 42.116 26.3701 43.3086C37.1339 44.5006 49.5826 44.0301 62.6622 41.9402C74.7502 40.0081 89.7592 36.642 99.6477 29.2575C107.331 23.5196 110.192 16.8905 108.826 12.0326C107.105 5.90518 98.5371 2.72248 88.8684 1.27825C67.1693 -1.96352 32.611 0.844763 8.65248 18.1967C7.49256 19.0366 8.8963 19.6665 10.068 18.8186Z" fill="#FEA36F"/>
</svg>
